<?xml version="1.0" standalone="no"?>
<!DOCTYPE svg PUBLIC "-//W3C//DTD SVG 20010904//EN"
 "http://www.w3.org/TR/2001/REC-SVG-20010904/DTD/svg10.dtd">
<svg version="1.0" xmlns="http://www.w3.org/2000/svg"
 width="64.000000pt" height="64.000000pt" viewBox="0 0 64.000000 64.000000"
 preserveAspectRatio="xMidYMid meet">

<g transform="translate(0.000000,64.000000) scale(0.100000,-0.100000)"
fill="#ff0000" stroke="none">
<path d="M283 560 c-27 -11 -43 -40 -43 -76 0 -22 -3 -24 -14 -15 -36 30 -110
9 -126 -35 -15 -39 -12 -51 19 -86 l28 -32 -25 -21 c-19 -16 -26 -32 -26 -58
0 -64 58 -101 115 -73 29 14 29 14 29 -14 0 -46 31 -75 80 -75 49 0 80 29 80
75 l0 28 31 -15 c28 -14 34 -14 65 1 58 27 68 97 19 134 l-23 17 29 33 c31 35
34 47 19 86 -16 44 -90 65 -126 35 -12 -9 -14 -6 -14 19 0 57 -62 95 -117 72z"/>
</g>
</svg>
